<svg width="1024" height="1024" viewBox="0 0 1024 1024" fill="none" xmlns="http://www.w3.org/2000/svg">
<circle cx="512" cy="512" r="512" fill="#462F8E"/>
<path d="M291.375 260.8C282.842 260.8 275.642 258.133 269.775 252.8C263.908 246.933 260.975 239.2 260.975 229.6C260.975 220.533 263.908 213.067 269.775 207.2C275.642 201.333 282.842 198.4 291.375 198.4C299.908 198.4 307.108 201.333 312.975 207.2C318.842 213.067 321.775 220.533 321.775 229.6C321.775 239.2 318.842 246.933 312.975 252.8C307.108 258.133 299.908 260.8 291.375 260.8ZM308.975 357.6V792H272.975V357.6H308.975ZM322.544 574.4C322.544 529.6 331.344 490.4 348.944 456.8C367.077 423.2 391.877 397.333 423.344 379.2C455.344 361.067 491.61 352 532.144 352C576.41 352 614.81 363.2 647.344 385.6C679.877 407.467 702.81 436 716.144 471.2V200H752.144V792H716.144V676.8C703.344 712.533 680.944 741.867 648.944 764.8C616.944 787.2 578.01 798.4 532.144 798.4C491.61 798.4 455.344 789.333 423.344 771.2C391.877 752.533 367.077 726.4 348.944 692.8C331.344 658.667 322.544 619.2 322.544 574.4ZM716.144 574.4C716.144 536.533 708.144 503.2 692.144 474.4C676.677 445.067 655.344 422.667 628.144 407.2C600.944 391.2 570.544 383.2 536.944 383.2C501.744 383.2 470.81 390.933 444.144 406.4C417.477 421.333 396.677 443.2 381.744 472C366.81 500.8 359.344 534.933 359.344 574.4C359.344 613.867 366.81 648 381.744 676.8C396.677 705.6 417.477 727.733 444.144 743.2C471.344 758.667 502.277 766.4 536.944 766.4C570.544 766.4 600.944 758.667 628.144 743.2C655.877 727.2 677.477 704.8 692.944 676C708.41 646.667 716.144 612.8 716.144 574.4Z" fill="white"/>
</svg>
