<?xml version="1.0" encoding="UTF-8"?>
<svg version="1.1" viewBox="0 0 2048 730" width="1280" height="1280" xmlns="http://www.w3.org/2000/svg">
<path transform="translate(1932,28)" d="m0 0h9l-2 4-16 15-8 7-36 36-8 7-21 21-8 7-30 30-8 7-29 29h-2l-2 4-6 6-4-2-11-13-11-14-11-13-9-11-3-4-5 1-15 9-14 8-6 1 2-9 4-13 5-20 1-7-9-11-13-15-9-11-11-12-9-10-1-3 2-1 47-3 146-12 79-6z" fill="#EE626D"/>
<path transform="translate(727,380)" d="m0 0h20l20 4 15 6 11 7 9 7 10 9 9 13 8 16 5 15 2 11 1 11v11l-2 15-4 15-5 12-7 12-8 10-11 11-15 10-14 6-14 4-15 2h-15l-17-3-13-5-13-7-10-8-7-7-10-13-1 135h-14l-2-1-1-3-1-199 1-26v-63h16l1 1v37l11-13 7-8 11-9 17-9 13-4zm-3 16-16 4-16 8-9 7-9 9-9 14-6 13-3 9-1 11 2 5-1 7-2 5 2 18 6 18 8 14 9 11 11 9 14 8 12 4 14 2h14l13-2 16-6 12-7 10-8 10-13 8-16 4-14 2-11v-11l-3-3h-2l1-4 3-1v-10l-4-15-6-14-9-13-12-12-11-7-10-5-11-3-7-1z" fill="#FEFEFE"/>
<path transform="translate(204,380)" d="m0 0h18l17 3 12 4 14 7 12 9 10 9 9 12 9 17 5 17 2 12v28l-3 17-6 16-8 13-8 10-11 11-13 9-13 6-17 5-15 2h-16l-17-3-17-7-12-8-12-11-8-10-3-4v133l-2 2h-11l-4-2-1-186-1-14 1-8v-82h17v21l-1 18h2l2-4 11-14 11-10 13-8 11-5 15-4zm-5 16-15 4-16 8-9 7-9 9-8 13-7 15-4 16-1 13 2 23 4 15 8 16 8 10 10 10 14 9 13 5 8 2 9 1h14l13-2 15-5 14-9 10-9 8-9 8-16 5-15 3-18v-6l-1-1h-13l-1-7h13l1-4-5-20-5-12-10-15-7-8-12-9-14-7-17-4z" fill="#FEFEFE"/>
<path transform="translate(454,380)" d="m0 0h19l16 3 14 5 11 6 13 10 7 7 9 12 1 3 1-1v-38h16v193l-1 1h-9l-6-2v-25l1-10-5 3-7 8-13 13-14 9-15 6-14 3-10 1h-13l-19-3-16-6-14-8-13-12-9-10-9-15-6-15-4-17-2-19h-11l-2-2 1-4 7-1h6l1-10 5-17 5-12 7-13 8-10 12-12 14-9 15-7 15-4zm-4 16-15 4-16 8-10 8-8 9-7 11-8 17-4 13-1 6v13l2 19 5 17 9 17 8 10 10 9 14 8 14 5 16 2h11l14-2 15-5 13-8 10-9 9-10 8-14 5-16 2-10 1-14-1-2h-16v-5l16-2v-7l-4-15-6-14-7-11-9-10-10-9-17-9-11-3-7-1z" fill="#FDFDFD"/>
<path transform="translate(383,39)" d="m0 0h18l16 3 14 5 14 8 13 11 11 13 5 5-1-38h16v194h-14l-2-4v-33l-6 5-7 9-8 8-15 10-14 6-12 3-18 2-18-1-17-4-17-8-14-10-12-12-9-14-7-15-5-17-2-17v-10l2-17 4-14 5-12 6-11 9-12 12-12 14-9 12-6 19-5zm0 15-15 3-13 5-12 8-12 11-7 10-8 15-4 12-2 10v28l3 15 5 13 6 11 11 13 8 7 11 7 14 6 8 2 21 1 15-2 14-5 12-7 10-8 7-7 10-15 6-14 3-12 1-9v-17l-2-14-5-15-8-15-7-9-12-12-13-8-13-5-16-3z" fill="#FEFEFE"/>
<path transform="translate(973,380)" d="m0 0h19l15 3 13 5 14 9 9 8 9 12 8 16 4 13 3 19 1 9 2 1h15l2 1v6l-1 1h-15l-3-1v2l-4 3h-161l5 25 9 20 8 11 7 8 13 9 13 6 18 4 12 1h12l19-2 23-6 14-7h5l2 4v7l-6 5-12 6-22 6-23 3h-18l-19-3-16-5-17-9-10-8-10-10-9-14-7-15-4-15-2-22-1-2v-10l6-25 6-15 8-14 9-11 10-10 11-7 14-7 15-4zm0 15-14 3-16 8-10 8-10 11-11 20-6 15-3 11 1 1h148l-3-21-6-18-8-13-9-10-14-9-11-4-12-2z" fill="#FEFEFE"/>
<path transform="translate(649,39)" d="m0 0h15l16 3 13 5 10 7 9 8 7 10 7 15 3 12 1 12v129h-15l-2-1-1-130-2-14-5-13-7-10-9-8-10-5-11-3-6-1h-18l-14 3-12 6-10 8-7 8-9 16-5 15-1 6-1 27-1 96h-15l-1-1v-193h15l1 2-1 32 9-11 7-8 10-9 15-8 15-4z" fill="#FEFEFE"/>
<path transform="translate(849,39)" d="m0 0h21l23 4 18 6 7 5 1 2v11l-1 2-6-1-16-7-16-4-14-2h-17l-14 3-10 5-8 7-5 10-1 13 2 8 6 9 8 7 15 8 36 12 19 8 14 9 6 5 7 10 4 10 1 6v13l-4 13-6 10-6 7-10 7-11 5-15 4-18 2h-12l-21-3-17-5-16-8-4-5v-13l3-1 19 10 19 6 10 2 11 1h12l15-2 15-6 11-8 5-8 2-9v-9l-3-11-6-8-11-7-17-7-36-12-16-8-10-7-8-8-7-12-3-11v-16l5-14 7-9 8-7 16-8 11-3z" fill="#FEFEFE"/>
<path transform="translate(166,39)" d="m0 0h21l23 4 18 6 7 5 1 2v9l-2 5-21-9-16-4-14-2h-17l-14 3-12 6-5 4-5 8-2 9v9l3 10 9 10 10 7 17 7 33 11 21 10 9 7 7 7 7 13 2 11v9l-2 11-5 10-8 10-11 8-11 5-16 4-18 2h-10l-17-2-19-5-16-7-7-6-2-10 2-5 9 3 8 5 16 6 17 4 10 1h16l13-2 15-6 11-8 4-6 3-11v-9l-3-10-4-6-8-7-16-8-40-13-17-8-12-9-9-10-6-12-2-9v-13l3-12 7-11 10-9 16-8 11-3z" fill="#FEFEFE"/>
<path transform="translate(727,380)" d="m0 0h20l20 4 15 6 11 7 9 7 10 9 9 13 8 16 5 15 2 11 1 17h-15l-3 2-3-5-2-1 1-4 2-1v-10l-4-15-6-14-9-13-11-11-11-7-10-5-11-3-7-1h-24l-16 4-16 8-9 7-8 8-9 14-6 13-3 9-1 11 2 5-1 7-2 2h-16l-1-1 1-34v-63h16l1 1v37l11-13 7-8 11-9 17-9 13-4z" fill="#FEFEFE"/>
<path transform="translate(1202,384)" d="m0 0h21l8 1 3 3v11l-2 3-15-2h-15l-12 3-11 6-10 9-7 10-8 16-5 17-1 14 9 2 2 2v3l-2 1h-11l1 96-3 2h-11l-3-1-1-193 4-1h11l2 2v36l8-10 7-9 7-7 14-9 13-4z" fill="#FEFEFE"/>
<path transform="translate(1429,383)" d="m0 0 7 2h15l1 4-3 5-7 5-5 6-5 3-2-5 2-4-1-8-3-3z" fill="#EE626D"/>
<path transform="translate(991,475)" d="m0 0h25v9h-22l-3-3-1-5z" fill="#EE626D"/>
<path transform="translate(818,472)" d="m0 0 4 1h14l1 12h-15l-3 2-3-5-2-1 1-4 2-1z" fill="#EE626D"/>
<path transform="translate(888,471)" d="m0 0 4 2 14 1 3 5v3l-4 2-17 1-1-1v-10z" fill="#EE626D"/>
<path transform="translate(1038,475)" d="m0 0h11l2 5v4l-2 1h-20l-2-3v-5l2-1z" fill="#EE626D"/>
<path transform="translate(1370,307)" d="m0 0h5l2 2-1 22-5 1-4-4-1-9 2-9z" fill="#EE626D"/>
<path transform="translate(1437,267)" d="m0 0h8l11 7 4 5 1 7-22-11-3-4z" fill="#EE626D"/>
<path transform="translate(655,472)" d="m0 0 2 1 1 8-3 4h-16l-1-1v-8l1-3 10 1 4 2z" fill="#EE626D"/>
<path transform="translate(957,475)" d="m0 0h23l-1 8-7 1h-10l-5-1-1-7z" fill="#EE626D"/>
<path transform="translate(1394,369)" d="m0 0 8 1 5 4 7 4 4 3 1 5-1 1h-6l-12-8-6-7z" fill="#EE626D"/>
<path transform="translate(1571,322)" d="m0 0h5l1 3-4 6-7 7-6 4h-5l-1-4 4-5 5-4 5-5z" fill="#EE626D"/>
<path transform="translate(1369,452)" d="m0 0 1 3-1 5-10 7-9 4-4-1-1-5 18-10z" fill="#EE626D"/>
<path transform="translate(1423,411)" d="m0 0h3l-1 6-5 6-11 8-4 1-2-4 7-8 8-7z" fill="#EE626D"/>
<path transform="translate(1330,469)" d="m0 0h5l2 2-1 4-9 4-8 2h-7l-1-4 2-4z" fill="#EE626D"/>
<path transform="translate(1476,322)" d="m0 0 4 1 1 1v7l-4 14-7 2-1-5 4-17z" fill="#EE626D"/>
<path transform="translate(1392,276)" d="m0 0h3l-1 6-7 8-6 7-6 1-1-4 7-10 7-6z" fill="#EE626D"/>
<path transform="translate(1146,472)" d="m0 0h2v3l9 2 2 2v3l-2 1h-11l-1 3v-2l-10-3-1-4 2-2z" fill="#EE626D"/>
<path transform="translate(1420,264)" d="m0 0h5l2 2-1 4-3 2-9 1-4 3-10-1v-4l7-4z" fill="#EE626D"/>
<path transform="translate(920,475)" d="m0 0h24v7l-1 1h-22z" fill="#EE626D"/>
<path transform="translate(1617,266)" d="m0 0 4 1-1 5-11 16-6 1-2-4 7-10 7-8z" fill="#EE626D"/>
<path transform="translate(423,474)" d="m0 0 22 1 1 6-1 2h-21l-2-2z" fill="#EE626D"/>
<path transform="translate(1467,289)" d="m0 0 4 1 5 8 4 9-1 5h-5l-6-10-4-8v-3z" fill="#EE626D"/>
<path transform="translate(1654,205)" d="m0 0 4 1-1 5-9 15-2 2h-5l-2-3 10-16z" fill="#EE626D"/>
<path transform="translate(1396,434)" d="m0 0h3l-1 6-8 8-7 5h-5l-2-2 1-4 12-9z" fill="#EE626D"/>
<path transform="translate(1514,366)" d="m0 0h7l-1 5-7 6-11 5-5-1-2-4 13-7z" fill="#EE626D"/>
<path transform="translate(246,474)" d="m0 0 6 1h14l2 2-1 5-1 1h-20l-2-5z" fill="#EE626D"/>
<path transform="translate(1480,380)" d="m0 0h6l1 5-4 3-15 5-6-2v-4l8-4z" fill="#EE626D"/>
<path transform="translate(1635,237)" d="m0 0h4l1 4-7 11-4 6-7 1-1-3 7-12 5-6z" fill="#EE626D"/>
<path transform="translate(709,474)" d="m0 0 11 1h9l2 3-1 5h-22l-1-7z" fill="#EE626D"/>
<path transform="translate(138,475)" d="m0 0h22l1 2v6h-18l-6-2-1-3z" fill="#EE626D"/>
<path transform="translate(1547,345)" d="m0 0h3l-1 6-7 7-10 7-5-2 1-5 11-8 5-4z" fill="#EE626D"/>
<path transform="translate(1597,295)" d="m0 0 2 1v5l-8 10-6 6-4-1-2-4 9-10 7-6z" fill="#EE626D"/>
<path transform="translate(672,475)" d="m0 0h22l1 1v7h-19l-5-1v-6z" fill="#EE626D"/>
<path transform="translate(174,475)" d="m0 0h21l1 1v6l-3 2-19-1-1-1v-6z" fill="#EE626D"/>
<path transform="translate(745,474)" d="m0 0 19 1 2 2v5l-1 1h-21l-1-5z" fill="#EE626D"/>
<path transform="translate(364,472)" d="m0 0 6 1 3 7-3 4-6 2-2-4h-10l-2-2 1-4 7-1h6z" fill="#EE626D"/>
<path transform="translate(1467,355)" d="m0 0 3 1-1 6-6 11-7 6-3 3v-8l5-9 6-8z" fill="#EE626D"/>
<path transform="translate(1374,341)" d="m0 0 5 1 9 14 4 7v1h-7l-7-8-5-10z" fill="#EE626D"/>
<path transform="translate(1243,475)" d="m0 0h19l3 3-1 5-18 1-4-2v-6z" fill="#EE626D"/>
<path transform="translate(1171,475)" d="m0 0h21l2 4-1 4-2 1-19-1-1-1z" fill="#EE626D"/>
<path transform="translate(1207,475)" d="m0 0h19l3 2v5l-1 1-18 1-4-2v-6z" fill="#EE626D"/>
<path transform="translate(209,475)" d="m0 0h21l2 2v5l-1 1h-10-3-8l-2-3z" fill="#EE626D"/>
<path transform="translate(1278,475)" d="m0 0h21l2 3-1 4-6 1h-16l-1-1v-6z" fill="#EE626D"/>
<path transform="translate(1066,474)" d="m0 0 4 1h15l2 1v6l-1 1h-15l-3-1v2l-4 2v-7z" fill="#EE626D"/>
<path transform="translate(780,474)" d="m0 0 20 1 2 1v5l-1 1-9 1h-12l-1-1v-7z" fill="#EE626D"/>
<path transform="translate(459,475)" d="m0 0h21l1 1v6l-7 1h-15l-1-1z" fill="#EE626D"/>
<path transform="translate(862,475)" d="m0 0h9l3 1v5l-1 1h-25l-1-5 1-1z" fill="#EE626D"/>
<path transform="translate(546,471)" d="m0 0 3 1 2 4v6l-4 3-1-3-12 1-4-1-1-5 7-2h10z" fill="#EE626D"/>
<path transform="translate(388,475)" d="m0 0h21l1 7-1 1h-10l-10-1-3-5z" fill="#EE626D"/>
<path transform="translate(1099,475)" d="m0 0h16l7 2-1 5-1 1h-14l-7-2z" fill="#EE626D"/>
<path transform="translate(573,475)" d="m0 0h15l1 7h-25v-6z" fill="#EE626D"/>
<path transform="translate(295,472)" d="m0 0 6 4 1 3-2 4-4 1-1-1h-13l-2-5 1-3 13-1z" fill="#EE626D"/>
<path transform="translate(601,475)" d="m0 0h21l2 2v5h-22l-2-3z" fill="#EE626D"/>
<path transform="translate(494,475)" d="m0 0h21l2 2v5l-4 1-20-1v-6z" fill="#EE626D"/>
<path transform="translate(320,475)" d="m0 0h17l3 4v2l-2 1h-17l-7-3 1-3z" fill="#EE636D"/>
<path transform="translate(1663,184)" d="m0 0 4 1 1 1-1 7-3 4h-5l-3-4z" fill="#EE626D"/>
<path transform="translate(120,685)" d="m0 0 7 2 1 1v6l-5 1-5-3v-5z" fill="#FEFEFE"/>
<path transform="translate(115,474)" d="m0 0 7 1 1 1v6l-5 2-4-1z" fill="#EE626D"/>
<path transform="translate(1396,274)" d="m0 0h3v2h-3z" fill="#EE626D"/>
<path transform="translate(1464,288)" d="m0 0 3 1z" fill="#EE626D"/>
<path transform="translate(1374,450)" d="m0 0" fill="#EE626D"/>
<path transform="translate(1524,363)" d="m0 0" fill="#EE626D"/>
<path transform="translate(1603,293)" d="m0 0" fill="#EE626D"/>
</svg>
